/vscmnt/brussel_pixiu_data/_data_brussel/112/vsc11236/PredSimResults/SUBJ07opt3D/weighted-trackIG/worker_03.mot
version=1
nRows=10
nColumns=50
inDegrees=yes
endheader
                time	         pelvis_tilt	         pelvis_list	     pelvis_rotation	           pelvis_tx	           pelvis_ty	           pelvis_tz	       hip_flexion_r	     hip_adduction_r	      hip_rotation_r	        knee_angle_r	       ankle_angle_r	         mtp_angle_r	       hip_flexion_l	     hip_adduction_l	      hip_rotation_l	        knee_angle_l	       ankle_angle_l	         mtp_angle_l	    lumbar_extension	      lumbar_bending	     lumbar_rotation	 ercspn_r/activation	 intobl_r/activation	 extobl_r/activation	    abd_r/activation	    add_r/activation	hamstrings_r/activation	bifemsh_r/activation	glut_max_r/activation	iliopsoas_r/activation	rect_fem_r/activation	  vasti_r/activation	gastroc_r/activation	 soleus_r/activation	tib_ant_r/activation	 ercspn_l/activation	 intobl_l/activation	 extobl_l/activation	    abd_l/activation	    add_l/activation	hamstrings_l/activation	bifemsh_l/activation	glut_max_l/activation	iliopsoas_l/activation	rect_fem_l/activation	  vasti_l/activation	gastroc_l/activation	 soleus_l/activation	tib_ant_l/activation	
          0.00000000	         -4.36600646	         -0.23878802	          9.69018912	          0.00000000	          0.84559550	         -0.01454373	         31.26999099	         -2.84876465	         -6.09618561	         -8.21724002	          2.63619988	          0.27396220	        -14.82788180	         -0.23484448	          5.34979586	         -8.87078873	          8.05580328	         29.45254738	        -12.09072060	         -1.24212593	         -1.54037191	          0.12490988	          0.12631342	          0.00999999	          0.01484736	          0.18630372	          0.08889142	          0.11083338	          0.11029043	          0.04609522	          0.00999999	          0.00999999	          0.00999999	          0.00999999	          0.43033584	          0.11873345	          0.00999999	          0.00999999	          0.03126966	          0.05932658	          0.01740019	          0.16064102	          0.01970925	          0.42175074	          0.01184861	          0.01133257	          0.17024111	          0.32101254	          0.01667774	
          0.01109170	         -4.35151974	         -0.19023266	          9.73201539	          0.01666357	          0.84384439	         -0.01404645	         31.28361274	         -2.66373622	         -5.80474824	        -10.24333093	          2.27702738	          0.25011038	        -15.35968505	         -0.34206511	          5.04052108	         -9.93706077	          7.05656453	         31.07251715	        -11.92532575	         -0.88945111	         -1.74106423	          0.10542149	          0.12661963	          0.00999999	          0.01253088	          0.17426578	          0.07739582	          0.09739581	          0.17541334	          0.03890346	          0.00999999	          0.00999999	          0.01403894	          0.01184860	          0.47653193	          0.14179641	          0.00999999	          0.00999999	          0.02639098	          0.09197554	          0.01468543	          0.13590976	          0.01663422	          0.40673667	          0.00999999	          0.00999999	          0.14368016	          0.29955019	          0.01407569	
          0.02218340	         -4.33135142	         -0.12919193	          9.71597415	          0.03346338	          0.84232813	         -0.01347990	         31.13563648	         -2.51651031	         -5.48883002	        -12.03334083	          1.87690651	          0.24040133	        -15.67253027	         -0.40673460	          4.67801510	        -11.42452117	          5.95552819	         32.64776888	        -11.76197233	         -0.54635366	         -1.92976686	          0.13841468	          0.10686449	          0.00999999	          0.09157099	          0.18573026	          0.06747288	          0.09499954	          0.18564254	          0.03283376	          0.00999999	          0.00999999	          0.01184859	          0.00999999	          0.55207988	          0.16268740	          0.00999999	          0.00999999	          0.02227347	          0.08333477	          0.01259103	          0.11470518	          0.01403896	          0.35788819	          0.00999999	          0.00999999	          0.12126324	          0.27574091	          0.01187960	
          0.03327510	         -4.30717140	         -0.04690076	          9.64428592	          0.05020080	          0.84119327	         -0.01282238	         30.91598456	         -2.38280563	         -5.23523426	        -13.69084721	          1.48386530	          0.21875957	        -15.71053086	         -0.42134640	          4.27068838	        -13.39088315	          4.70989140	         34.11230048	        -11.62036689	         -0.22349760	         -2.10396435	          0.15509649	          0.09019153	          0.00999999	          0.14785314	          0.19354849	          0.05694579	          0.08017774	          0.21812054	          0.02771105	          0.00999999	          0.00999999	          0.00999999	          0.00999999	          0.57159827	          0.20077759	          0.00999999	          0.00999999	          0.01879837	          0.08111118	          0.01441318	          0.09680894	          0.01184860	          0.30205061	          0.00999999	          0.00999999	          0.10234379	          0.23986789	          0.01002615	
          0.04436680	         -4.27958749	          0.04504324	          9.52290299	          0.06668333	          0.84059388	         -0.01208763	         30.72464424	         -2.25596227	         -5.02908446	        -15.42501624	          1.39842496	          0.19477626	        -15.41974910	         -0.39897901	          3.82854432	        -15.89265553	          3.32745933	         35.28113338	        -11.51309464	          0.09290358	         -2.26000184	          0.16353936	          0.07611988	          0.00999999	          0.18886244	          0.21091427	          0.04806128	          0.06766844	          0.24290800	          0.02338758	          0.00999999	          0.03058289	          0.00999999	          0.00999999	          0.56198550	          0.24310960	          0.00999999	          0.00999999	          0.01586546	          0.09988267	          0.01545985	          0.09177729	          0.00999999	          0.25492479	          0.00999999	          0.00999999	          0.08637615	          0.20244380	          0.00999999	
          0.05545850	         -4.25016855	          0.13988746	          9.35421005	          0.08277115	          0.84066677	         -0.01128924	         30.58015281	         -2.13023029	         -4.86124309	        -17.24642770	          1.66864644	          0.17538514	        -14.75065209	         -0.34766023	          3.35655419	        -18.98316231	          1.83231976	         35.88542826	        -11.44595570	          0.40812045	         -2.39499174	          0.17370610	          0.06424369	          0.00999999	          0.20775658	          0.22886271	          0.04332127	          0.05711084	          0.25174797	          0.01973866	          0.00999999	          0.06145799	          0.00999999	          0.00999999	          0.50285006	          0.26931076	          0.00999999	          0.00999999	          0.01339013	          0.13137543	          0.01654164	          0.07745824	          0.00999999	          0.21515152	          0.00999999	          0.00999999	          0.07289978	          0.17085859	          0.00999999	
          0.06655020	         -4.22067940	          0.23775010	          9.14043224	          0.09845520	          0.84144130	         -0.01044857	         30.40982224	         -1.99809696	         -4.71097768	        -19.00898274	          2.27205274	          0.18333260	        -13.69204255	         -0.27247850	          2.86970116	        -22.64659809	          0.16731593	         35.77222314	        -11.40918706	          0.71922577	         -2.50753172	          0.15898885	          0.05422041	          0.00999999	          0.21290614	          0.23585784	          0.04218285	          0.04820043	          0.24092059	          0.01665904	          0.00999999	          0.11091818	          0.00999999	          0.00999999	          0.42439559	          0.28805089	          0.00999999	          0.00999999	          0.01130101	          0.15946472	          0.01641434	          0.06537324	          0.00999999	          0.18158366	          0.00999999	          0.00999999	          0.06152598	          0.14420130	          0.00999999	
          0.07764190	         -4.19443883	          0.33816839	          8.88324019	          0.11375690	          0.84288996	         -0.00957169	         30.10675641	         -1.84579181	         -4.54311282	        -20.50150934	          3.12605296	          0.26543793	        -12.26413674	         -0.18015548	          2.40132658	        -26.77102472	         -1.83730383	         34.96320679	        -11.39273388	          1.02043199	         -2.59892879	          0.13418347	          0.04576096	          0.00999999	          0.21407703	          0.22789231	          0.04885218	          0.04068022	          0.20678110	          0.01405990	          0.00999999	          0.14973964	          0.00999999	          0.00999999	          0.35818155	          0.28562049	          0.00999999	          0.00999999	          0.00999999	          0.16947314	          0.01385338	          0.06364465	          0.00999999	          0.15325305	          0.00999999	          0.00999999	          0.05192672	          0.12170307	          0.00999999	
          0.08873360	         -4.17499919	          0.44057692	          8.58292993	          0.12867312	          0.84492649	         -0.00865854	         29.60983050	         -1.66372288	         -4.32253648	        -21.57663226	          4.01596262	          0.42312842	        -10.50927728	         -0.07181107	          1.99140555	        -31.19693511	         -4.27841652	         33.42746719	        -11.39482806	          1.30706997	         -2.66945226	          0.11324822	          0.03862136	          0.00999999	          0.20925016	          0.20815864	          0.06196687	          0.03433330	          0.17451919	          0.01186628	          0.00999999	          0.17732171	          0.00999999	          0.00999999	          0.30229820	          0.27405098	          0.00999999	          0.00999999	          0.00999999	          0.17362335	          0.02335269	          0.05371484	          0.01000000	          0.12934257	          0.00999999	          0.00999999	          0.04382514	          0.10271500	          0.02013349	
          0.09982530	         -4.16432370	          0.54353156	          8.24215912	          0.14318780	          0.84740151	         -0.00773139	         28.91348094	         -1.45617732	         -4.04734478	        -22.20224320	          4.82010134	          0.65144359	         -8.49233977	          0.06282858	          1.67424510	        -35.78510901	         -6.79919731	         30.70072109	        -11.41717680	          1.57921501	         -2.71863252	          0.09557927	          0.03259567	          0.00999999	          0.21976847	          0.17568181	          0.07147103	          0.02897664	          0.14729077	          0.01001491	          0.00999999	          0.20514050	          0.00999999	          0.00999999	          0.26046425	          0.28658810	          0.03195668	          0.00999999	          0.01403896	          0.15671824	          0.01970923	          0.04533427	          0.01853065	          0.10916259	          0.00999999	          0.00999999	          0.03698755	          0.08668945	          0.18732082	
